# xmcd
#
# Track frame offsets:
#	150
#	18853
#	36781
#	64421
#	88677
#
# Disc length: 1457 seconds
#
# Revision: 1
# Processed by: cddbd v1.4PL0 Copyright (c) Steve Scherf et al.
# Submitted via: audiograbber 1.81.02
#
DISCID=3805af05
DTITLE=J.D. Simo - Burnin' Live
DYEAR=2002
DGENRE=Blues
TTITLE0=Can't You Here The Wind Howl?
TTITLE1=Lost Your Way
TTITLE2=The One
TTITLE3=Remembering You
TTITLE4=Them Changes
EXTD=
EXTT0=
EXTT1=
EXTT2=
EXTT3=
EXTT4=
PLAYORDER=
